<mxfile host="app.diagrams.net" modified="2023-04-04T10:17:35.996Z" agent="Mozilla/5.0 (Macintosh; Intel Mac OS X 10.15; rv:109.0) Gecko/20100101 Firefox/111.0" etag="JNGktzBLRLzlNgnYLppl" version="21.1.4" type="google">
  <diagram name="Pagina-1" id="WiLNJL_bUwPcAE0T_KBA">
    <mxGraphModel grid="1" page="1" gridSize="10" guides="1" tooltips="1" connect="1" arrows="1" fold="1" pageScale="1" pageWidth="827" pageHeight="1169" math="0" shadow="0">
      <root>
        <mxCell id="0" />
        <mxCell id="1" parent="0" />
        <mxCell id="BetKj2tuGqMvhdZirDrk-6" style="edgeStyle=orthogonalEdgeStyle;rounded=0;orthogonalLoop=1;jettySize=auto;html=1;" edge="1" parent="1" source="BetKj2tuGqMvhdZirDrk-1" target="BetKj2tuGqMvhdZirDrk-2">
          <mxGeometry relative="1" as="geometry" />
        </mxCell>
        <mxCell id="BetKj2tuGqMvhdZirDrk-1" value="START" style="ellipse;whiteSpace=wrap;html=1;" vertex="1" parent="1">
          <mxGeometry x="340" y="60" width="120" height="80" as="geometry" />
        </mxCell>
        <mxCell id="BetKj2tuGqMvhdZirDrk-7" style="edgeStyle=orthogonalEdgeStyle;rounded=0;orthogonalLoop=1;jettySize=auto;html=1;entryX=0.667;entryY=0.167;entryDx=0;entryDy=0;entryPerimeter=0;" edge="1" parent="1" source="BetKj2tuGqMvhdZirDrk-2" target="BetKj2tuGqMvhdZirDrk-3">
          <mxGeometry relative="1" as="geometry" />
        </mxCell>
        <mxCell id="BetKj2tuGqMvhdZirDrk-2" value="&lt;div&gt;INSERISCI IL&lt;/div&gt;&lt;div&gt;&amp;nbsp;PRIMO NUMERO&lt;/div&gt;" style="shape=parallelogram;perimeter=parallelogramPerimeter;whiteSpace=wrap;html=1;fixedSize=1;" vertex="1" parent="1">
          <mxGeometry x="340" y="170" width="120" height="60" as="geometry" />
        </mxCell>
        <mxCell id="BetKj2tuGqMvhdZirDrk-8" style="edgeStyle=orthogonalEdgeStyle;rounded=0;orthogonalLoop=1;jettySize=auto;html=1;" edge="1" parent="1" source="BetKj2tuGqMvhdZirDrk-3" target="BetKj2tuGqMvhdZirDrk-4">
          <mxGeometry relative="1" as="geometry" />
        </mxCell>
        <mxCell id="BetKj2tuGqMvhdZirDrk-3" value="N1" style="shape=parallelogram;perimeter=parallelogramPerimeter;whiteSpace=wrap;html=1;fixedSize=1;" vertex="1" parent="1">
          <mxGeometry x="320" y="260" width="120" height="60" as="geometry" />
        </mxCell>
        <mxCell id="BetKj2tuGqMvhdZirDrk-12" style="edgeStyle=orthogonalEdgeStyle;rounded=0;orthogonalLoop=1;jettySize=auto;html=1;" edge="1" parent="1" source="BetKj2tuGqMvhdZirDrk-4" target="BetKj2tuGqMvhdZirDrk-5">
          <mxGeometry relative="1" as="geometry" />
        </mxCell>
        <mxCell id="BetKj2tuGqMvhdZirDrk-4" value="&lt;div&gt;INSERISCI IL &lt;br&gt;&lt;/div&gt;&lt;div&gt;SECONDO &lt;br&gt;&lt;/div&gt;&lt;div&gt;NUMERO&lt;br&gt;&lt;/div&gt;" style="shape=parallelogram;perimeter=parallelogramPerimeter;whiteSpace=wrap;html=1;fixedSize=1;" vertex="1" parent="1">
          <mxGeometry x="320" y="410" width="120" height="60" as="geometry" />
        </mxCell>
        <mxCell id="BetKj2tuGqMvhdZirDrk-14" style="edgeStyle=orthogonalEdgeStyle;rounded=0;orthogonalLoop=1;jettySize=auto;html=1;" edge="1" parent="1" source="BetKj2tuGqMvhdZirDrk-5" target="BetKj2tuGqMvhdZirDrk-13">
          <mxGeometry relative="1" as="geometry" />
        </mxCell>
        <mxCell id="BetKj2tuGqMvhdZirDrk-5" value="N2" style="shape=parallelogram;perimeter=parallelogramPerimeter;whiteSpace=wrap;html=1;fixedSize=1;" vertex="1" parent="1">
          <mxGeometry x="320" y="510" width="120" height="60" as="geometry" />
        </mxCell>
        <mxCell id="BetKj2tuGqMvhdZirDrk-16" style="edgeStyle=orthogonalEdgeStyle;rounded=0;orthogonalLoop=1;jettySize=auto;html=1;" edge="1" parent="1" source="BetKj2tuGqMvhdZirDrk-13" target="BetKj2tuGqMvhdZirDrk-15">
          <mxGeometry relative="1" as="geometry" />
        </mxCell>
        <mxCell id="BetKj2tuGqMvhdZirDrk-13" value="SOMMA = N1 + N2" style="rounded=0;whiteSpace=wrap;html=1;" vertex="1" parent="1">
          <mxGeometry x="320" y="630" width="120" height="60" as="geometry" />
        </mxCell>
        <mxCell id="BetKj2tuGqMvhdZirDrk-18" style="edgeStyle=orthogonalEdgeStyle;rounded=0;orthogonalLoop=1;jettySize=auto;html=1;" edge="1" parent="1" source="BetKj2tuGqMvhdZirDrk-15" target="BetKj2tuGqMvhdZirDrk-17">
          <mxGeometry relative="1" as="geometry" />
        </mxCell>
        <mxCell id="BetKj2tuGqMvhdZirDrk-15" value="SOMMA" style="shape=parallelogram;perimeter=parallelogramPerimeter;whiteSpace=wrap;html=1;fixedSize=1;" vertex="1" parent="1">
          <mxGeometry x="320" y="730" width="120" height="60" as="geometry" />
        </mxCell>
        <mxCell id="BetKj2tuGqMvhdZirDrk-17" value="END" style="ellipse;whiteSpace=wrap;html=1;" vertex="1" parent="1">
          <mxGeometry x="320" y="840" width="120" height="80" as="geometry" />
        </mxCell>
      </root>
    </mxGraphModel>
  </diagram>
</mxfile>
